<?xml version="1.0" encoding="UTF-8" standalone="no"?>
<!-- Created with Inkscape (http://www.inkscape.org/) -->

<svg
   width="1.7320509in"
   height="2.0000002in"
   viewBox="0 0 43.994094 50.800006"
   version="1.1"
   id="svg1"
   inkscape:version="1.4.2 (1:1.4.2+202505120737+ebf0e940d0)"
   sodipodi:docname="kultarr.svg"
   inkscape:export-filename="kultarr-hex.png"
   inkscape:export-xdpi="96"
   inkscape:export-ydpi="96"
   xmlns:inkscape="http://www.inkscape.org/namespaces/inkscape"
   xmlns:sodipodi="http://sodipodi.sourceforge.net/DTD/sodipodi-0.dtd"
   xmlns="http://www.w3.org/2000/svg"
   xmlns:svg="http://www.w3.org/2000/svg">
  <sodipodi:namedview
     id="namedview1"
     pagecolor="#ffffff"
     bordercolor="#000000"
     borderopacity="0.25"
     inkscape:showpageshadow="2"
     inkscape:pageopacity="0.0"
     inkscape:pagecheckerboard="0"
     inkscape:deskcolor="#d1d1d1"
     inkscape:document-units="mm"
     inkscape:zoom="2.4942603"
     inkscape:cx="50.515979"
     inkscape:cy="90.808485"
     inkscape:window-width="1870"
     inkscape:window-height="1052"
     inkscape:window-x="0"
     inkscape:window-y="0"
     inkscape:window-maximized="1"
     inkscape:current-layer="g2"
     showgrid="false"
     showguides="false" />
  <defs
     id="defs1" />
  <path
     sodipodi:type="star"
     style="fill:#c19d7f;fill-opacity:1;stroke:#673b1f;stroke-width:1.15091;stroke-dasharray:none;stroke-opacity:1"
     id="path1"
     inkscape:flatsided="true"
     sodipodi:sides="6"
     sodipodi:cx="20.308222"
     sodipodi:cy="23.909681"
     sodipodi:r1="27.572187"
     sodipodi:r2="23.878214"
     sodipodi:arg1="0.52359878"
     sodipodi:arg2="1.0471976"
     inkscape:rounded="0"
     inkscape:randomized="0"
     d="M 44.186437,37.695775 20.308222,51.481869 -3.569993,37.695775 l 1e-7,-27.572187 L 20.308222,-3.6625061 44.186437,10.123588 Z"
     transform="matrix(0.8995397,0,0,0.8995397,3.7289951,3.8922942)" />
  <g
     inkscape:label="Layer 1"
     inkscape:groupmode="layer"
     id="layer1"
     transform="translate(-0.65312525,-0.56725913)">
    <g
       id="g2"
       transform="translate(0,1.5875)">
      <g
         id="g1"
         transform="matrix(1.3569436,0,0,1.3569436,-2.039084,-7.9524254)"
         style="fill:#673b1f;fill-opacity:1">
        <path
           d="m 22.554875,14.686395 c -0.357852,0.06185 -0.918929,0.375524 -1.276781,0.711287 -0.34018,0.31809 -0.609674,0.746629 -0.680361,1.082392 -0.02651,0.141373 -0.05743,0.172299 -0.181135,0.203224 -0.12812,0.03534 -0.159045,0.02209 -0.304837,-0.119284 -0.08836,-0.08836 -0.313672,-0.23415 -0.49039,-0.322508 -0.322509,-0.159046 -0.344598,-0.163464 -0.817317,-0.163464 -0.450628,0 -0.508061,0.0088 -0.737793,0.123702 -0.561077,0.287166 -1.038213,0.945437 -1.139826,1.572782 -0.08836,0.543405 0.110449,1.316543 0.419703,1.625798 l 0.119284,0.119284 -0.07952,0.379941 c -0.21206,0.989616 -0.10603,2.178039 0.273912,3.061624 0.07952,0.189971 0.145791,0.371106 0.145791,0.402031 0,0.02651 -0.0486,0.123702 -0.110448,0.216479 -0.154627,0.225314 -0.189971,0.543405 -0.09278,0.804062 0.216479,0.561077 1.007288,0.715705 1.506513,0.291584 0.0486,-0.04418 0.318091,-0.15021 0.600838,-0.242986 0.282748,-0.09278 0.645018,-0.242986 0.804064,-0.335763 0.159045,-0.09278 0.300419,-0.154627 0.313673,-0.141373 0.01325,0.01325 0.02651,0.07069 0.02651,0.128119 0,0.181135 0.12812,0.419704 0.313673,0.592003 l 0.181135,0.167881 -0.154628,0.185553 c -0.393195,0.455046 -0.278329,1.21493 0.242986,1.599289 0.110449,0.08394 0.212061,0.08836 2.787713,0.110449 2.412188,0.01767 2.712607,0.01325 3.101385,-0.05743 0.269494,-0.0486 0.441792,-0.06185 0.4683,-0.03534 0.05743,0.05743 -0.225314,0.344599 -0.565495,0.574331 -0.322509,0.21206 -1.161915,0.503644 -1.736245,0.605256 -0.905675,0.154627 -1.435827,0.132538 -2.390099,-0.10603 -0.83057,-0.212061 -1.23702,-0.375524 -2.359173,-0.949855 -1.524185,-0.781973 -1.952724,-0.914511 -2.893743,-0.910093 -0.786391,0.0044 -1.334214,0.167881 -1.837858,0.552241 -0.428539,0.322509 -0.477638,0.913797 -0.177219,1.050753 0.09719,0.04418 0.110078,-0.03397 0.379571,-0.2637 0.18632,-0.402085 0.650308,-0.663351 1.13628,-0.747292 0.296002,-0.0486 0.455047,-0.05302 0.715705,-0.01767 0.622927,0.08394 1.506513,0.410867 2.390099,0.883585 0.932182,0.499226 1.815768,0.839406 2.849563,1.095646 0.432957,0.10603 0.57433,0.119284 1.281199,0.119284 0.759883,0.0044 0.817316,-0.0044 1.369557,-0.145791 1.312124,-0.335763 2.098515,-0.728958 2.906996,-1.457916 0.2712,-0.351775 0.482384,-0.590776 0.698033,-1.135408 0.177772,-0.429286 0.23415,-0.622927 0.366687,-0.932182 0.393197,-0.932183 0.525734,-1.546275 0.516898,-2.42986 -0.0088,-1.630215 -0.614092,-3.105803 -1.731828,-4.214703 -0.821733,-0.812898 -1.91738,-1.356304 -2.929085,-1.444662 l -0.349016,-0.03093 -0.06185,-0.260657 c -0.141374,-0.61851 -0.592003,-1.206094 -1.148661,-1.49326 -0.494808,-0.260657 -1.197259,-0.384359 -1.669977,-0.300419 z m 0.927765,0.592003 c 0.388777,0.101612 0.636181,0.238568 0.870331,0.477136 0.499226,0.512479 0.693615,1.29887 0.477137,1.930634 -0.216479,0.640599 -0.600838,1.002869 -1.290035,1.219348 -0.194389,0.06185 -0.371106,0.110448 -0.402032,0.110448 -0.03092,0 -0.110448,0.0486 -0.181135,0.101612 l -0.128119,0.101613 0.114866,0.09278 c 0.172299,0.132538 0.455046,0.163463 0.799644,0.08394 0.349017,-0.08394 0.477137,-0.145792 0.737794,-0.357852 0.371106,-0.304837 0.888004,-1.135408 0.949855,-1.524185 0.01767,-0.09719 0.04418,-0.189971 0.06627,-0.198807 0.01767,-0.01325 0.172299,-0.0044 0.335762,0.02209 1.312125,0.203224 2.597742,1.104481 3.322281,2.332665 0.247405,0.410867 0.530152,1.144243 0.636182,1.643469 0.12812,0.614092 0.12812,1.625797 -0.0088,2.253143 -0.185554,0.870332 -0.508063,1.480006 -1.04705,1.983649 -0.441793,0.415285 -0.759883,0.565495 -1.276781,0.61851 -0.220896,0.02209 -1.572781,0.02209 -3.035115,0.0044 -2.840728,-0.03534 -2.717026,-0.02209 -2.845146,-0.269493 -0.150209,-0.296001 0,-0.6406 0.379942,-0.870332 0.296001,-0.176717 0.446211,-0.216478 0.927765,-0.251822 l 0.375524,-0.02651 0.176717,0.300419 c 0.176717,0.304837 0.552241,0.706868 0.795227,0.857078 0.185553,0.114866 0.384359,0.10603 0.503643,-0.02209 0.145792,-0.154627 0.09278,-0.247404 -0.273911,-0.534569 -0.737794,-0.569913 -1.055885,-1.290035 -0.985198,-2.222218 0.03976,-0.538987 0.229732,-0.967526 0.561077,-1.29887 0.472718,-0.463883 1.272363,-0.759884 1.824604,-0.680361 0.114866,0.01767 0.36227,0.110448 0.547823,0.207643 0.181135,0.09278 0.357852,0.172299 0.388777,0.172299 0.03093,0 0.101613,-0.07511 0.154628,-0.163464 l 0.101612,-0.159045 -0.167881,-0.145792 c -0.203231,-0.176717 -0.627352,-0.349016 -1.007294,-0.415285 -0.23415,-0.03976 -0.36227,-0.03976 -0.68036,0.01767 -1.033795,0.176717 -1.904127,0.998451 -2.160367,2.036664 -0.05302,0.216479 -0.110448,0.393196 -0.123702,0.38436 -0.375524,-0.172299 -0.49039,-0.203225 -0.9366,-0.23415 -0.538988,-0.03534 -1.126572,-0.12812 -1.126572,-0.176717 0,-0.03976 1.073556,-0.636182 1.276781,-0.715705 0.15021,-0.05743 0.185553,-0.132537 0.123702,-0.296001 -0.05743,-0.163463 -0.163463,-0.265075 -0.278329,-0.265075 -0.141374,0 -1.00287,0.583166 -1.329796,0.905675 -0.220897,0.21206 -0.27833,0.296001 -0.27833,0.402031 0,0.207643 0.172299,0.428539 0.366688,0.477136 0.08836,0.02209 0.163463,0.05743 0.163463,0.07511 0,0.09278 -1.175169,0.640599 -1.528603,0.720122 -0.132568,0.03094 -0.141404,0.0221 -0.190001,-0.163448 -0.03092,-0.10603 -0.10603,-0.251822 -0.167881,-0.318091 -0.136956,-0.145792 -0.463882,-0.296001 -0.600838,-0.278329 -0.08394,0.01325 -0.110448,-0.03093 -0.220896,-0.340181 -0.296002,-0.83057 -0.393196,-1.709738 -0.300419,-2.694935 0.114866,-1.285617 0.751047,-2.11177 2.133859,-2.783294 0.220896,-0.110449 0.428539,-0.198807 0.455046,-0.198807 0.03534,0 0.06185,0.132538 0.07511,0.393195 0.04418,0.733376 0.432957,1.276781 0.715704,0.994034 0.09719,-0.09719 0.08836,-0.207643 -0.0486,-0.543405 -0.136956,-0.344598 -0.198807,-0.927765 -0.136956,-1.285617 0.05302,-0.287165 0.25624,-0.70245 0.419703,-0.861496 0.220897,-0.21206 0.649436,-0.481554 0.918929,-0.583166 0.309255,-0.114866 0.728958,-0.132538 1.060303,-0.03976 z m -4.046822,1.453498 c 0.132538,0.05302 0.247404,0.119284 0.25624,0.150209 0.0088,0.02651 -0.145792,0.145792 -0.349016,0.260658 -0.468301,0.273911 -1.051467,0.848242 -1.38723,1.369557 -0.23415,0.36227 -0.256239,0.379942 -0.309254,0.304837 -0.114867,-0.154627 -0.159046,-0.432957 -0.141374,-0.839406 0.01325,-0.349016 0.03534,-0.428539 0.159045,-0.645017 0.344599,-0.605256 1.122154,-0.870332 1.771589,-0.600838 z m 3.605029,7.37352 c 0.02209,0.09278 0.01767,0.123702 -0.03092,0.123702 -0.212061,0 -0.817317,0.10603 -1.033795,0.176717 l -0.25624,0.08836 -0.145792,-0.09719 c -0.26508,-0.181141 -0.326931,-0.516903 -0.145796,-0.804069 l 0.101612,-0.167881 0.300419,0.01767 c 0.185553,0.01325 0.366688,0.06185 0.481554,0.119284 0.216479,0.110448 0.291583,0.09719 0.4683,-0.08836 l 0.12812,-0.132537 0.0486,0.322508 c 0.02651,0.176717 0.06185,0.375524 0.08394,0.441793 z m -4.395838,-0.229732 c 0.10603,0.10603 0.114866,0.278329 0.02209,0.353434 -0.08394,0.07069 -0.406449,0.06627 -0.49039,-0.0044 -0.07069,-0.05743 -0.07952,-0.229732 -0.01767,-0.353434 0.06627,-0.119284 0.366688,-0.114866 0.485972,0.0044 z m 10.094964,2.297322 c -27.2372694,-20.3124637 -27.2372694,-20.3124637 0,0 z"
           id="path2"
           style="fill:#673b1f;fill-opacity:1;stroke-width:0.00441793"
           sodipodi:nodetypes="scccccsccscccscccssssccccccscccccccccccccccccccccccssscccsccccccccccccccccccccccccccsccccccccsccscssscccccccscsccccssccccccccssccccccccccssscccsscc" />
        <path
           d="m 19.890865,20.880329 c -0.08394,0.08394 -0.06627,0.40645 0.03534,0.530151 0.194389,0.251822 0.578749,0.322509 0.883586,0.167882 0.296001,-0.15021 0.441793,-0.49039 0.287165,-0.662689 -0.123702,-0.136956 -0.291583,-0.110449 -0.432957,0.06627 -0.06627,0.08394 -0.154627,0.154627 -0.194389,0.154627 -0.03976,0 -0.136955,-0.07069 -0.220896,-0.154627 -0.154627,-0.159046 -0.265075,-0.194389 -0.357852,-0.101613 z"
           id="path4"
           style="fill:#673b1f;fill-opacity:1;stroke-width:0.00441793" />
      </g>
      <path
         style="font-size:10.6428px;line-height:0;font-family:'Delius Swash Caps';-inkscape-font-specification:'Delius Swash Caps';letter-spacing:0.0343958px;fill:#673b1f;stroke-width:0.12472"
         d="m 7.2424391,31.940313 0.010643,0.936567 q 0.6811392,-0.06386 1.011066,-0.297999 -0.3512124,-0.521497 -1.0217088,-0.638568 z m -0.7237104,0.87271 v -0.915281 q -0.2873556,0.04257 -0.4576404,0.170285 -0.1702848,0.117071 -0.1702848,0.276713 0,0.319284 0.6279252,0.468283 z m -0.053214,3.416339 0.031928,-2.650057 Q 5.8695179,33.451591 5.5076627,33.111021 5.1564502,32.759809 5.1564502,32.312811 q 0,-0.446997 0.3618553,-0.787567 0.3618552,-0.34057 0.9791376,-0.415069 l -0.053214,-2.064703 q 0,-0.244785 0.1170708,-0.393784 0.1170708,-0.148999 0.319284,-0.148999 0.2022132,0 0.319284,0.148999 0.1170708,0.148999 0.1170708,0.351212 0,0.191571 -0.053214,2.139203 1.0429944,0.180928 1.5964201,0.915281 0.5108544,-0.574711 0.8727096,-1.394207 0.3724976,-0.830138 0.5002116,-1.692205 0.08514,-0.468283 0.436355,-0.468283 0.159642,0 0.255427,0.106428 0.106428,0.106428 0.106428,0.287355 0,0.755639 -0.53214,1.894419 -0.53214,1.138779 -1.2132792,1.883776 1.0642802,2.181774 1.7134912,3.224768 0.436354,0.702425 0.947209,0.734353 h 0.08514 q 0.180928,0 0.180928,0.05321 v 0.05321 q 0,0.319284 -0.191571,0.510855 -0.180927,0.202213 -0.436354,0.202213 -0.255428,0 -0.436355,-0.106428 -0.170285,-0.106428 -0.244785,-0.180928 -0.06386,-0.0745 -0.212856,-0.255427 -0.308641,-0.351212 -0.9046376,-1.479349 L 8.636646,33.174878 q -0.6066397,0.34057 -1.3729213,0.436355 l 0.0745,2.543629 q 0,0.04257 0,0.0745 0,0.276713 -0.2022132,0.404426 -0.1170708,0.06386 -0.2341416,0.06386 L 6.6677279,36.633788 Q 6.4655147,36.506075 6.4655147,36.229362 Z m 7.2821393,-4.193264 -0.08514,2.341417 q 0,0.734353 0.308641,1.18135 0.319284,0.446998 0.862067,0.446998 0.542782,0 1.053637,-0.60664 0.500211,-0.617282 0.713067,-1.383564 l -0.03193,-2.309487 q 0,-0.542783 0.404426,-0.542783 0.489569,0 0.489569,0.734353 0,0.723711 -0.212856,2.117917 0,0.776925 0.106428,1.298422 0.117071,0.510854 0.287356,0.574711 0.06386,0.03193 0.148999,0.04257 0.09578,0.01064 0.127714,0.03193 0.04257,0.02128 0.04257,0.08514 0,0.287356 -0.180928,0.468283 -0.170284,0.180928 -0.436354,0.180928 -0.670497,0 -0.670497,-1.362278 -0.787567,1.362278 -1.979561,1.362278 -0.851424,0 -1.319707,-0.627925 -0.468283,-0.649211 -0.468283,-1.553849 l 0.06386,-1.607063 q 0,-0.329927 -0.08514,-0.787567 -0.08514,-0.468283 -0.08514,-0.585354 0,-0.117071 0.127713,-0.244785 0.138357,-0.127713 0.329927,-0.127713 0.489569,0 0.489569,0.872709 z m 6.239145,-3.001269 -0.05321,3.565338 0.05321,3.565338 q 0,0.53214 -0.404426,0.53214 -0.404427,0 -0.404427,-0.53214 l 0.05321,-3.565338 -0.05321,-3.565338 q 0,-0.53214 0.404427,-0.53214 0.404426,0 0.404426,0.53214 z m 3.652958,2.905484 -0.883352,-0.02128 -0.02129,2.522343 q 0,0.979138 0.0745,1.277136 0.0745,0.287356 0.425712,0.287356 0.170284,0 0.404426,-0.106428 0.234142,-0.117071 0.287356,-0.117071 0.223498,0 0.223498,0.223499 0,0.223499 -0.393783,0.45764 -0.393784,0.234142 -0.776925,0.234142 -0.925923,0 -0.925923,-1.362278 l -0.01064,-3.416339 q -0.351212,0.03193 -0.489569,0.03193 -0.53214,0 -0.53214,-0.351212 0,-0.351213 0.53214,-0.351213 l 0.468283,0.02129 -0.02129,-1.191994 q 0,-0.53214 0.404426,-0.53214 0.404427,0 0.404427,0.53214 l -0.03193,1.202637 0.862067,-0.04257 q 0.53214,0 0.53214,0.361856 0,0.340569 -0.53214,0.340569 z m 5.76022,2.075346 q 0,0.776925 0.106428,1.298422 0.117071,0.510854 0.287356,0.574711 0.06386,0.03193 0.148999,0.04257 0.09578,0.01064 0.127714,0.03193 0.04257,0.02128 0.04257,0.08514 0,0.297999 -0.159642,0.478926 -0.159642,0.170285 -0.468283,0.170285 -0.297999,0 -0.468284,-0.383141 -0.170284,-0.393783 -0.170284,-1.021709 -0.287356,0.617283 -0.79821,1.011066 -0.510855,0.393784 -1.160066,0.393784 -0.638568,0 -1.096208,-0.425712 -0.851424,-0.787567 -0.851424,-2.224345 0,-1.160065 0.670496,-2.022132 0.670497,-0.862067 1.724134,-0.862067 0.79821,0 1.383564,0.542783 0,-0.542783 0.404426,-0.542783 0.489569,0 0.489569,0.734353 0,0.723711 -0.212856,2.117917 z m -0.617282,0.09579 -0.05321,-1.638992 q -0.627925,-0.617282 -1.33035,-0.617282 -0.702425,0 -1.202637,0.627925 -0.500211,0.627925 -0.500211,1.521921 0,0.883352 0.329927,1.44742 0.329926,0.553426 0.91528,0.553426 0.585354,0 1.074923,-0.521497 0.500212,-0.521497 0.766282,-1.372921 z m 3.344297,0.04257 0.03193,2.000846 q 0,0.542783 -0.404427,0.542783 -0.489569,0 -0.489569,-0.72371 0,-0.734354 0.212856,-2.12856 0,-0.446998 -0.09578,-1.245208 -0.08514,-0.808853 -0.08514,-0.979138 0,-0.170285 0.117071,-0.308641 0.11707,-0.148999 0.297998,-0.148999 0.180928,0 0.297998,0.148999 0.117071,0.138356 0.117071,0.287356 0,0.148999 -0.01064,0.478926 0,0.329927 0,0.45764 0.202214,-0.53214 0.659854,-0.957852 0.468283,-0.415069 0.925924,-0.415069 0.468283,0 0.734353,0.19157 0.276713,0.180928 0.276713,0.415069 0,0.234142 -0.117071,0.361856 -0.117071,0.127713 -0.308641,0.127713 -0.180928,0 -0.404427,-0.19157 -0.202213,-0.202213 -0.340569,-0.202213 -0.351213,0 -0.819496,0.766281 -0.468283,0.755639 -0.595997,1.521921 z m 4.376669,0 0.03193,2.000846 q 0,0.542783 -0.404427,0.542783 -0.489569,0 -0.489569,-0.72371 0,-0.734354 0.212856,-2.12856 0,-0.446998 -0.09578,-1.245208 -0.08514,-0.808853 -0.08514,-0.979138 0,-0.170285 0.117071,-0.308641 0.11707,-0.148999 0.297998,-0.148999 0.180928,0 0.297998,0.148999 0.117071,0.138356 0.117071,0.287356 0,0.148999 -0.01064,0.478926 0,0.329927 0,0.45764 0.202214,-0.53214 0.659854,-0.957852 0.468283,-0.415069 0.925924,-0.415069 0.468283,0 0.734353,0.19157 0.276713,0.180928 0.276713,0.415069 0,0.234142 -0.117071,0.361856 -0.117071,0.127713 -0.308641,0.127713 -0.180928,0 -0.404427,-0.19157 -0.202213,-0.202213 -0.340569,-0.202213 -0.351213,0 -0.819496,0.766281 -0.468283,0.755639 -0.595997,1.521921 z"
         id="text1"
         aria-label="Kultarr" />
      <text
         xml:space="preserve"
         style="font-style:normal;font-variant:normal;font-weight:normal;font-stretch:normal;font-size:4.34173px;line-height:0;font-family:'Delius Swash Caps';-inkscape-font-specification:'Delius Swash Caps';text-align:start;letter-spacing:0.00661434px;writing-mode:lr-tb;direction:ltr;text-anchor:start;fill:#673b1f;fill-opacity:1;stroke:none;stroke-width:0.244222;stroke-dasharray:none;stroke-opacity:1"
         x="3.2882018"
         y="24.607805"
         id="text2"
         transform="rotate(-42.269564)"><tspan
           sodipodi:role="line"
           id="tspan2"
           style="fill:#673b1f;fill-opacity:1;stroke-width:0.244222"
           x="3.2882018"
           y="24.607805">z</tspan></text>
      <text
         xml:space="preserve"
         style="font-style:normal;font-variant:normal;font-weight:normal;font-stretch:normal;font-size:5.60509px;line-height:0;font-family:'Delius Swash Caps';-inkscape-font-specification:'Delius Swash Caps';text-align:start;letter-spacing:0.00853898px;writing-mode:lr-tb;direction:ltr;text-anchor:start;fill:#673b1f;fill-opacity:1;stroke:none;stroke-width:0.315286;stroke-dasharray:none;stroke-opacity:1"
         x="0.89306694"
         y="21.560322"
         id="text2-8"
         transform="rotate(-42.269564)"><tspan
           sodipodi:role="line"
           id="tspan2-0"
           style="fill:#673b1f;fill-opacity:1;stroke-width:0.315286"
           x="0.89306694"
           y="21.560322">z</tspan></text>
      <text
         xml:space="preserve"
         style="font-style:normal;font-variant:normal;font-weight:normal;font-stretch:normal;font-size:7.13917px;line-height:0;font-family:'Delius Swash Caps';-inkscape-font-specification:'Delius Swash Caps';text-align:start;letter-spacing:0.010876px;writing-mode:lr-tb;direction:ltr;text-anchor:start;fill:#673b1f;fill-opacity:1;stroke:none;stroke-width:0.401578;stroke-dasharray:none;stroke-opacity:1"
         x="-1.8507806"
         y="17.558615"
         id="text2-8-2"
         transform="rotate(-42.269564)"><tspan
           sodipodi:role="line"
           id="tspan2-0-6"
           style="fill:#673b1f;fill-opacity:1;stroke-width:0.401578"
           x="-1.8507806"
           y="17.558615">z</tspan></text>
    </g>
  </g>
  <g
     inkscape:groupmode="layer"
     id="layer2"
     inkscape:label="Layer 2"
     transform="translate(-0.65312525,-0.56725913)" />
</svg>
